# File created by Blade
# Date/Time:  Wed Apr 08 17:20:14 2015
#---------------------------------------------------------
:version 1.10
:name HOM
:units
  mass 1.0
  length 1.000000
  angle deg
:documentation
     Acclaim Skeleton File
:root
   axis xyz
   order TX TY TZ RX RY RZ
   position 0.000000 0.000000 0.000000
   orientation 0 0 0
:bonedata
   begin
      id 1
      name Spine_dum
      direction 0.000000 1.000000 0.000000
      length 5.893853
      axis 0.0 0.0 0.0 xyz
   end
   begin
      id 2
      name LeftUpLeg_dum
      direction 1.000000 0.000000 0.000000
      length 3.697939
      axis 0.0 0.0 0.0 xyz
   end
   begin
      id 3
      name RightUpLeg_dum
      direction -1.000000 0.000000 0.000000
      length 3.697939
      axis 0.0 0.0 0.0 xyz
   end
   begin
      id 4
      name Spine
      direction 0.000000 1.000000 0.000000
      length 0.000000
      axis 0.0 0.0 0.0 xyz
      dof rx ry rz
   end
   begin
      id 5
      name Spine_dum1
      direction 0.000000 1.000000 0.000000
      length 16.447146
      axis 0.0 0.0 0.0 xyz
   end
   begin
      id 6
      name Spine_dum2
      direction 0.000000 1.000000 0.000000
      length 10.900383
      axis 0.0 0.0 0.0 xyz
   end
   begin
      id 7
      name Spine_dum3
      direction 0.000000 1.000000 0.000000
      length 10.900383
      axis 0.0 0.0 0.0 xyz
   end
   begin
      id 8
      name Head
      direction 0.000000 1.000000 0.000000
      length 4.527550
      axis 0.0 0.0 0.0 xyz
      dof rx ry rz
   end
   begin
      id 9
      name LeftShoulder
      direction 1.000000 0.000000 0.000000
      length 8.219464
      axis 0.0 0.0 -90.0 xyz
      dof rx ry rz
   end
   begin
      id 10
      name LeftArm
      direction 1.000000 0.000000 0.000000
      length 11.094937
      axis 0.0 0.0 -90.0 xyz
      dof rx ry rz
   end
   begin
      id 11
      name LeftForeArm
      direction 1.000000 0.000000 0.000000
      length 9.103875
      axis 0.0 0.0 -90.0 xyz
      dof ry rz rx
   end
   begin
      id 12
      name LeftHand
      direction 0.000000 0.000000 0.000000
      length 0.000000
      axis 0.0 0.0 -90.0 xyz
      dof rx ry rz
   end
   begin
      id 13
      name LeftHand_dum1
      direction 0.000000 0.000000 0.000000
      length 0.000000
      axis 0.0 0.0 -90.0 xyz
   end
   begin
      id 14
      name LeftHand_dum2
      direction 1.000000 0.000000 0.000000
      length 3.937000
      axis 0.0 0.0 -90.0 xyz
   end
   begin
      id 15
      name LeftHandThumb1
      direction 0.000000 0.000000 1.000000
      length 3.937000
      axis 0.0 0.0 -90.0 xyz
      dof rx rz ry
   end
   begin
      id 16
      name RightShoulder
      direction -1.000000 0.000000 0.000000
      length 8.219464
      axis 0.0 0.0 90.0 xyz
      dof rx ry rz
   end
   begin
      id 17
      name RightArm
      direction -1.000000 0.000000 0.000000
      length 11.094937
      axis 0.0 0.0 90.0 xyz
      dof rx ry rz
   end
   begin
      id 18
      name RightForeArm
      direction -1.000000 0.000000 0.000000
      length 9.103875
      axis 0.0 0.0 90.0 xyz
      dof ry rz rx
   end
   begin
      id 19
      name RightHand
      direction 0.000000 0.000000 0.000000
      length 0.000000
      axis 0.0 0.0 90.0 xyz
      dof rx ry rz
   end
   begin
      id 20
      name RightHand_dum1
      direction 0.000000 0.000000 0.000000
      length 0.000000
      axis 0.0 0.0 90.0 xyz
   end
   begin
      id 21
      name RightHand_dum2
      direction -1.000000 0.000000 0.000000
      length 3.937000
      axis 0.0 0.0 90.0 xyz
   end
   begin
      id 22
      name RightHandThumb1
      direction 0.000000 0.000000 1.000000
      length 3.937000
      axis 0.0 0.0 90.0 xyz
      dof rx rz ry
   end
   begin
      id 23
      name LeftUpLeg
      direction 0.000000 -1.000000 0.000000
      length 16.181467
      axis 0.0 0.0 0.0 xyz
      dof rx ry rz
   end
   begin
      id 24
      name LeftLeg
      direction 0.000000 -1.000000 0.000000
      length 16.501392
      axis 0.0 0.0 0.0 xyz
      dof rx ry rz
   end
   begin
      id 25
      name LeftFoot
      direction 0.000000 -0.258819 0.965926
      length 6.408245
      axis 15.0 0.0 0.0 xyz
      dof rx ry rz
   end
   begin
      id 26
      name LeftToeBase
      direction 0.000000 0.000000 1.000000
      length 2.952750
      axis 0.0 0.0 0.0 xyz
      dof rx ry rz
   end
   begin
      id 27
      name RightUpLeg
      direction 0.000000 -1.000000 0.000000
      length 16.181467
      axis 0.0 0.0 0.0 xyz
      dof rx ry rz
   end
   begin
      id 28
      name RightLeg
      direction 0.000000 -1.000000 0.000000
      length 16.501392
      axis 0.0 0.0 0.0 xyz
      dof rx ry rz
   end
   begin
      id 29
      name RightFoot
      direction 0.000000 -0.258819 0.965926
      length 6.408245
      axis 15.0 0.0 0.0 xyz
      dof rx ry rz
   end
   begin
      id 30
      name RightToeBase
      direction 0.000000 0.000000 1.000000
      length 2.952750
      axis 0.0 0.0 0.0 xyz
      dof rx ry rz
   end
:hierarchy
   begin
      root Spine_dum LeftUpLeg_dum RightUpLeg_dum
      Spine_dum Spine
      LeftUpLeg_dum LeftUpLeg
      RightUpLeg_dum RightUpLeg
      Spine Spine_dum1 Spine_dum2 Spine_dum3
      Spine_dum1 Head
      Spine_dum2 LeftShoulder
      Spine_dum3 RightShoulder
      LeftShoulder LeftArm
      LeftArm LeftForeArm
      LeftForeArm LeftHand
      LeftHand LeftHand_dum1 LeftHand_dum2
      LeftHand_dum1 LeftHandThumb1
      RightShoulder RightArm
      RightArm RightForeArm
      RightForeArm RightHand
      RightHand RightHand_dum1 RightHand_dum2
      RightHand_dum1 RightHandThumb1
      LeftUpLeg LeftLeg
      LeftLeg LeftFoot
      LeftFoot LeftToeBase
      RightUpLeg RightLeg
      RightLeg RightFoot
      RightFoot RightToeBase
   end

# File created by Blade
# Date/Time:  Wed Apr 08 17:19:54 2015
# Frame Rate: 120.000 fps
#------------------------------------------------------
:FULLY-SPECIFIED
:DEGREES
107
root 6.735834 36.275208 -3.284013 -37.211970 -81.602380 33.437323
Spine 13.633811 2.313432 -0.868609
Head 7.691828 15.193164 1.474201
LeftShoulder -8.207098 16.730729 17.749709
LeftArm 14.832942 -14.702463 -67.878692
LeftForeArm 22.991919 0.000000 27.650413
LeftHand -12.588196 -0.000000 -11.073308
LeftHandThumb1 -26.253704 0.000000 33.147579
RightShoulder -27.181431 -45.153644 1.124539
RightArm 50.817772 18.996847 52.861771
RightForeArm 3.254475 -0.000000 20.995892
RightHand -2.635573 -0.000000 12.716654
RightHandThumb1 -24.326973 -0.000000 -32.862282
LeftUpLeg 1.136016 18.774837 -4.328101
LeftLeg 16.041559 -0.000000 -0.000000
LeftFoot -11.636696 7.976037 -8.288647
LeftToeBase 4.692250 -0.000000 -0.000000
RightUpLeg 8.126666 -13.170801 -7.824057
RightLeg 5.375069 -0.000000 -0.000000
RightFoot -14.737551 -6.419726 17.212923
RightToeBase 10.198200 -0.000000 -0.000000
108
root 6.717397 36.262065 -3.227104 -35.699944 -81.432698 31.889238
Spine 13.569591 2.272526 -0.870114
Head 7.637624 15.037689 1.638793
LeftShoulder -8.251670 16.867807 17.665468
LeftArm 14.807610 -14.195469 -68.179717
LeftForeArm 22.943502 -0.000000 27.738190
LeftHand -12.506788 -0.000000 -11.079803
LeftHandThumb1 -26.253704 0.000000 33.147579
RightShoulder -27.417887 -45.241957 1.526881
RightArm 50.944451 18.679072 53.017861
RightForeArm 2.898156 -0.000000 21.054139
RightHand -2.501732 -0.000000 12.973191
RightHandThumb1 -24.326973 -0.000000 -32.862282
LeftUpLeg 1.596283 18.549598 -4.382718
LeftLeg 15.225098 -0.000000 -0.000000
LeftFoot -11.580614 8.180241 -7.798926
LeftToeBase 4.832744 -0.000000 -0.000000
RightUpLeg 8.138423 -13.205219 -7.823003
RightLeg 5.597584 -0.000000 -0.000000
RightFoot -14.913869 -6.533059 17.363645
RightToeBase 10.139396 -0.000000 -0.000000
109
root 6.700463 36.249337 -3.164936 -34.270703 -81.247553 30.436581
Spine 13.481706 2.200372 -0.886098
Head 7.606553 14.901908 1.815531
LeftShoulder -8.325447 17.005710 17.548760
LeftArm 14.833633 -13.918762 -68.563589
LeftForeArm 23.122247 -0.000000 27.735820
LeftHand -12.297669 -0.000000 -11.175410
LeftHandThumb1 -26.253704 0.000000 33.147579
RightShoulder -27.612266 -45.355672 1.951664
RightArm 50.953324 18.295798 52.944280
RightForeArm 2.778814 0.000000 21.222977
RightHand -2.442231 -0.000000 13.053931
RightHandThumb1 -24.326973 -0.000000 -32.862282
LeftUpLeg 2.058121 18.145121 -4.467034
LeftLeg 14.440600 -0.000000 -0.000000
LeftFoot -11.603835 8.556890 -7.456735
LeftToeBase 4.934484 -0.000000 -0.000000
RightUpLeg 8.088571 -13.289967 -7.842550
RightLeg 5.920471 -0.000000 -0.000000
RightFoot -15.112623 -6.618635 17.456494
RightToeBase 10.150021 -0.000000 -0.000000
110
root 6.681123 36.237591 -3.101358 -32.956183 -81.079598 29.073000
Spine 13.414653 2.193366 -0.905758
Head 7.606177 14.683179 2.058052
LeftShoulder -8.380249 17.146046 17.453263
LeftArm 14.936083 -13.845117 -69.064021
LeftForeArm 23.535819 -0.000000 27.681940
LeftHand -12.056884 -0.000000 -11.421299
LeftHandThumb1 -26.253704 0.000000 33.147579
RightShoulder -27.829474 -45.416047 2.491205
RightArm 50.710551 17.758374 52.427526
RightForeArm 3.055268 0.000000 21.546135
RightHand -2.489113 -0.000000 12.880554
RightHandThumb1 -24.326973 -0.000000 -32.862282
LeftUpLeg 2.580709 17.712465 -4.528978
LeftLeg 13.591707 -0.000000 -0.000000
LeftFoot -11.635665 8.883306 -7.226585
LeftToeBase 5.159866 -0.000000 -0.000000
RightUpLeg 8.064913 -13.330051 -7.855529
RightLeg 6.236794 -0.000000 -0.000000
RightFoot -15.299731 -6.746143 17.549505
RightToeBase 10.091853 -0.000000 -0.000000
